<svg width="72" height="73" viewBox="0 0 72 73" fill="none" xmlns="http://www.w3.org/2000/svg">
<path d="M35.9141 33.9539V45.9539" stroke="black" stroke-width="2" stroke-linecap="round" stroke-linejoin="round"/>
<path d="M41.8748 39.9539H29.9531" stroke="black" stroke-width="2" stroke-linecap="round" stroke-linejoin="round"/>
<path d="M47.8356 18.9539V12.9539C47.8356 11.3626 47.2076 9.83643 46.0897 8.71122C44.9718 7.586 43.4557 6.95386 41.8748 6.95386H29.953C28.3721 6.95386 26.856 7.586 25.7381 8.71122C24.6202 9.83643 23.9922 11.3626 23.9922 12.9539V18.9539" stroke="black" stroke-width="2" stroke-linecap="round" stroke-linejoin="round"/>
<path d="M53.7969 18.9539V60.9539" stroke="black" stroke-width="2" stroke-linecap="round" stroke-linejoin="round"/>
<path d="M18.0317 18.9539V60.9539" stroke="black" stroke-width="2" stroke-linecap="round" stroke-linejoin="round"/>
<path d="M59.7576 18.9539H12.0707C8.77863 18.9539 6.10986 21.6401 6.10986 24.9539V54.9539C6.10986 58.2676 8.77863 60.9539 12.0707 60.9539H59.7576C63.0497 60.9539 65.7184 58.2676 65.7184 54.9539V24.9539C65.7184 21.6401 63.0497 18.9539 59.7576 18.9539Z" stroke="black" stroke-width="2" stroke-linecap="round" stroke-linejoin="round"/>
</svg>
