<svg width="42" height="42" viewBox="0 0 42 42" fill="none" xmlns="http://www.w3.org/2000/svg">
<g clip-path="url(#clip0_72_133)">
<path d="M23.625 0H28.8225C29.2005 1.87687 30.24 4.24463 32.0644 6.594C33.8494 8.89613 36.2171 10.5 39.375 10.5V15.75C34.7734 15.75 31.3163 13.6132 28.875 10.9489V28.875C28.875 31.4709 28.1052 34.0085 26.663 36.1669C25.2209 38.3253 23.171 40.0075 20.7727 41.0009C18.3744 41.9943 15.7354 42.2542 13.1894 41.7478C10.6434 41.2414 8.30479 39.9913 6.46923 38.1558C4.63367 36.3202 3.38363 33.9816 2.8772 31.4356C2.37077 28.8896 2.63069 26.2506 3.62409 23.8523C4.61749 21.454 6.29975 19.4042 8.45815 17.962C10.6165 16.5198 13.1541 15.75 15.75 15.75V21C14.1925 21 12.6699 21.4619 11.3749 22.3272C10.0799 23.1925 9.07049 24.4224 8.47445 25.8614C7.87841 27.3003 7.72246 28.8837 8.02632 30.4113C8.33018 31.9389 9.0802 33.3421 10.1815 34.4435C11.2829 35.5448 12.6861 36.2948 14.2137 36.5987C15.7413 36.9025 17.3247 36.7466 18.7636 36.1506C20.2026 35.5545 21.4325 34.5452 22.2978 33.2501C23.1631 31.9551 23.625 30.4325 23.625 28.875V0Z" fill="white"/>
</g>
<defs>
<clipPath id="clip0_72_133">
<rect width="42" height="42" fill="white"/>
</clipPath>
</defs>
</svg>
